<svg xmlns="http://www.w3.org/2000/svg" width="5000" height="5000" viewBox="0 0 5000 5000">
  <defs>
    <style>
      .cls-1 {
        fill-rule: evenodd;
      }
    </style>
  </defs>
  <path id="Forme_1" data-name="Forme 1" class="cls-1" d="M1356,870H3659c0.33,1,.67,2,1,3q-69.495,136.986-139,274-436.455,1.005-873,2V3177c0,20.81,3.86,125.53-4,132q-142.98-.495-286-1-1.005-1079.385-2-2159c-1-.67-2-1.33-3-2H1506q-51.495-97.485-103-195Q1379.5,911,1356,870Zm1688,412c10.58,8.96,2.84,147.03,4,174q1.005,254.475,2,509c11.21-4.47,86.46-138.94,99-160Q3268,1610.015,3387,1415c12.47-22.84,63.38-121.32,82-129q158.49,0.495,317,1v2q-16.995,26.49-34,53c-32.59,54.19-69.23,107.16-103,162q-146.49,233.97-293,468l-98,156c-7.53,12.03-34.25,34.33-29,55q347.97,562.44,696,1125l-1,1q-154.98-.495-310-1-280.965-447.96-562-896c-1.33,1-2.67,2-4,3v892H2797q0.495-1011.4,1-2023Q2920.985,1282.995,3044,1282Zm-1213,4q187.98,0.495,376,1-1.5,1009.9-3,2020l-1,1H1938l-2-2q1.005-257.475,2-515-1.005-108.99-2-218l-145-3q-156.48.495-313,1-111.495,223.98-223,448L909,3696q-110.488,218.475-221,437-100.99-.495-202-1c-25.288,0-60.891,4.23-81-3v-2q25-43.5,50-87c42.328-85.07,84.221-171,127-254q146.486-291.465,293-583c224.2-448.23,448.7-890.84,670-1338Q1687.98,1575.53,1831,1286Zm100,380c-66.6,164.93-160.31,313.26-236,473-26.09,55.06-69.3,112.51-84,174,1.33,1.67,2.67,3.33,4,5q160.485-1.005,321-2,0.495-324.96,1-650h-6Zm795,1912c79.88-1.41,147.88,23.69,176,77q-31.5,16.995-63,34c-1-.33-2-0.67-3-1-33.64-66.48-202.81-64.43-173,17,12.63,34.49,77.68,40.28,117,49,59.47,13.19,116.69,43.43,127,106,4.06,24.64.54,53.43-10,72-45.01,79.29-188.61,82.86-270,36-17.96-10.34-59.14-35.64-56-61q30.495-13.005,61-26c25.99,33.7,52.81,48.35,104,58,42.36,7.99,113.68-22.23,99-65-20.87-60.82-147.39-55.19-198-88-61.2-39.68-60.45-137.16-1-178C2661.47,3590.5,2693.39,3590.62,2726,3578Zm728,0c102.78-1.5,179.08,38.97,208,110-0.33,1-.67,2-1,3q-36,8.505-72,17c-31.8-58.11-119.41-89.41-187-42-27.9,19.57-39.48,49.14-51,86-5.07,16.23-10.01,53.05-4,75,32.41,118.39,173.73,148.89,246,43q35.49,11.505,71,23c5.68,11.79-54.46,67.98-64,74-61.84,39.04-165.62,41.78-231,5-88.89-50-138.49-192.1-69-299C3339.5,3612.24,3378.66,3603.2,3454,3578Zm-1980,5q41.49,0.495,83,1,64.995,107.49,130,215c1.67-.33,3.33-0.67,5-1q66.495-107.49,133-215,39.495,0.495,79,1v410q-32.49-.495-65-1-1.005-151.485-2-303h-4q-72,116.49-144,233c-21.46-8.24-120.4-200.67-146-234h-3l-2,2q1.005,112.995,2,226c0,18.02,6.54,67.75-4,77q-32.49-1.005-65-2V3692C1471,3670.63,1465.54,3594.44,1474,3583Zm605,0q34.995,1.005,70,2-0.495,69-1,138c5.92,96.88-18.14,169.51,62,203,14.32,5.99,42.11,14.91,67,9,123.7-29.38,73.9-157.83,86-292v-59h69l2,2c-16.41,183.69,47.32,358.8-113,406-118.51,34.89-220.1-25.01-243-116q-1.005-74.49-2-149,0.495-71.49,1-143C2077.67,3583.67,2078.33,3583.33,2079,3583Zm978,0q34.5,0.495,69,1v408l-2,2c-18.23-2.59-55.2,4.82-69-4Q3056.005,3786.525,3057,3583Z"/>
</svg>
